<?xml version="1.0" standalone="no"?>
<!DOCTYPE svg PUBLIC "-//W3C//DTD SVG 20010904//EN"
 "http://www.w3.org/TR/2001/REC-SVG-20010904/DTD/svg10.dtd">
<svg version="1.0" xmlns="http://www.w3.org/2000/svg"
 width="1080.000000pt" height="1080.000000pt" viewBox="0 0 1080.000000 1080.000000"
 preserveAspectRatio="xMidYMid meet">

<g transform="translate(0.000000,1080.000000) scale(0.100000,-0.100000)"
fill="#000000" stroke="none">
<path d="M1835 10463 c-164 -20 -319 -60 -474 -122 -235 -95 -472 -265 -631
-455 -87 -104 -188 -253 -233 -342 -51 -102 -112 -290 -144 -444 l-28 -135 0
-3625 0 -3625 23 -85 c45 -164 85 -273 143 -388 32 -64 63 -118 67 -121 5 -3
35 -44 68 -91 143 -206 391 -413 622 -521 79 -37 302 -116 377 -134 159 -38
412 -40 4875 -40 l2505 0 110 23 c232 49 475 154 660 285 143 101 321 284 417
427 42 63 88 136 102 163 63 113 137 352 171 547 14 86 15 417 13 3660 l-4
3565 -32 130 c-74 303 -168 497 -349 717 -66 81 -213 222 -275 264 -24 16 -59
41 -78 56 -121 93 -402 211 -622 260 -92 21 -114 21 -2128 28 -2135 8 -5104
10 -5155 3z m7235 -237 c165 -32 384 -121 529 -213 68 -43 199 -153 268 -224
191 -197 338 -500 388 -799 22 -127 22 -7050 0 -7185 -59 -374 -247 -705 -535
-938 -176 -143 -436 -263 -655 -302 -95 -18 -270 -18 -3625 -16 -1939 1 -3550
4 -3580 7 -162 16 -299 50 -443 110 -83 35 -258 130 -288 157 -13 13 -51 43
-84 69 -236 182 -435 513 -506 843 -4 22 -8 1638 -8 3590 -1 3886 -4 3635 58
3856 134 473 475 835 940 998 214 75 -117 69 3861 68 3456 -2 3588 -3 3680
-21z"/>
<path d="M7540 9255 c-135 -27 -241 -85 -382 -207 -78 -68 -306 -339 -373
-443 -134 -208 -285 -504 -368 -720 -132 -342 -207 -542 -259 -690 -70 -199
-188 -565 -188 -582 0 -33 -38 -2 -157 125 -155 165 -428 493 -569 682 -49 65
-156 237 -209 335 -96 178 -236 405 -317 514 -54 73 -188 202 -276 264 -166
119 -373 202 -550 220 -203 20 -452 -35 -704 -156 -179 -87 -388 -251 -494
-388 -44 -58 -45 -61 -39 -112 6 -50 10 -55 51 -80 70 -42 90 -39 355 69 330
133 516 141 730 33 87 -43 189 -131 364 -310 183 -187 317 -348 534 -637 264
-352 385 -495 626 -740 107 -110 226 -218 323 -295 83 -66 152 -128 152 -136
0 -63 -407 -1276 -506 -1508 -130 -305 -401 -817 -558 -1056 -50 -75 -116
-178 -146 -228 -83 -138 -430 -578 -550 -699 -131 -133 -243 -203 -426 -266
-187 -66 -281 -58 -376 29 -35 32 -50 55 -62 97 -25 86 -35 192 -36 361 0 140
3 169 29 270 39 155 69 224 148 341 157 233 351 341 415 231 31 -52 48 -159
48 -306 0 -130 -2 -142 -30 -216 -41 -105 -80 -158 -137 -183 -43 -19 -48 -19
-78 -5 -35 17 -51 58 -34 89 11 21 35 24 43 6 3 -9 12 -5 26 12 19 21 21 33
17 78 -19 185 -167 239 -265 96 -46 -69 -64 -140 -59 -240 4 -98 21 -140 77
-193 87 -82 284 -83 467 -1 128 58 181 136 229 336 34 145 44 366 20 468 -60
255 -277 387 -583 356 -248 -26 -493 -141 -600 -282 -60 -80 -89 -134 -122
-233 -35 -107 -48 -193 -60 -420 -12 -231 0 -415 38 -584 48 -211 114 -334
241 -455 90 -85 168 -123 295 -144 254 -43 447 58 892 465 115 105 256 242
314 305 57 62 112 122 123 133 34 37 211 249 263 315 179 229 390 540 590 875
213 354 492 977 641 1430 55 168 148 430 157 442 1 2 49 -21 106 -50 155 -79
280 -108 484 -114 180 -5 210 1 473 91 217 74 436 215 605 390 382 395 632
1002 677 1646 23 314 -24 664 -121 907 -77 194 -166 339 -268 438 -129 126
-268 202 -419 231 -88 17 -145 17 -232 -1z m170 -715 c62 -32 168 -145 219
-235 223 -389 160 -933 -164 -1430 -116 -179 -311 -388 -455 -490 -89 -62
-293 -151 -429 -186 -136 -35 -312 -19 -447 41 -54 23 -55 3 6 255 21 88 50
210 64 270 108 468 140 586 207 760 38 99 87 209 108 245 21 36 53 93 70 127
17 34 76 131 132 215 156 234 340 403 481 443 68 19 153 13 208 -15z"/>
</g>
</svg>
